<svg version="1.1" id="Layer_1" xmlns="http://www.w3.org/2000/svg" xmlns:xlink="http://www.w3.org/1999/xlink" x="0px" y="0px"
	 width="100%" viewBox="0 0 700 700" enable-background="new 0 0 700 700" xml:space="preserve">
<path fill="#F8F7F6" opacity="1.000000" stroke="none" 
	d="
M461.000000,701.000000 
	C307.333344,701.000000 154.166672,701.000000 1.000000,701.000000 
	C1.000000,467.666656 1.000000,234.333328 1.000000,1.000000 
	C234.333328,1.000000 467.666656,1.000000 701.000000,1.000000 
	C701.000000,234.333328 701.000000,467.666656 701.000000,701.000000 
	C621.166687,701.000000 541.333313,701.000000 461.000000,701.000000 
M531.060120,348.057678 
	C531.060120,348.057678 531.075867,348.184723 531.595703,347.984894 
	C531.757568,347.663025 531.919373,347.341156 532.010193,347.017487 
	C532.010193,347.017487 532.037964,347.082916 532.551636,346.784790 
	C532.844727,346.274048 533.137817,345.763306 533.252991,345.199402 
	C533.252991,345.199402 533.286621,345.381958 533.783264,345.117706 
	C533.940796,344.781158 534.098328,344.444641 534.128235,344.098114 
	C534.128235,344.098114 534.162354,344.221466 534.733398,343.907532 
	C535.553162,342.643341 536.372986,341.379120 537.102722,340.095428 
	C537.102722,340.095428 537.122070,340.185486 537.697388,339.858490 
	C538.646667,338.418976 539.595947,336.979462 540.516968,335.466766 
	C540.516968,335.466766 540.549438,335.395386 540.919250,335.041443 
	C541.001282,334.710297 541.083313,334.379150 541.063660,334.050446 
	C541.063660,334.050446 541.088135,334.149170 541.656494,333.810699 
	C542.274353,332.656555 542.892212,331.502441 543.477356,330.092163 
	C543.477356,330.092163 543.461670,330.349915 543.937805,329.878662 
	C545.360046,326.945587 546.782288,324.012543 548.097412,321.070801 
	C548.097412,321.070801 548.121582,321.175537 548.714966,320.766113 
	C551.185730,311.848389 553.656494,302.930695 556.041260,294.017303 
	C556.041260,294.017303 556.057312,294.101898 556.753845,293.695862 
	C557.463684,288.461060 558.173462,283.226288 559.110291,277.079346 
	C559.118225,271.994263 559.259766,266.904633 559.086487,261.825714 
	C558.973572,258.517334 558.403015,255.224533 557.996826,251.048798 
	C556.862671,243.011505 555.728577,234.974213 554.409546,226.263199 
	C552.978699,222.785263 551.547791,219.307327 550.092834,215.930038 
	C550.092834,215.930038 550.196045,215.922546 550.085327,215.218323 
	C549.101685,213.415237 548.117981,211.612137 547.105591,209.921402 
	C547.105591,209.921402 547.221313,209.914276 547.106812,209.415390 
	C546.920410,209.145081 546.734009,208.874771 546.540588,208.521225 
	C546.540588,208.521225 546.561707,208.440369 546.255798,207.890121 
	C545.546082,206.863556 544.836426,205.837006 544.104431,204.925858 
	C544.104431,204.925858 544.221313,204.913467 544.037720,204.262024 
	C543.036438,202.814972 542.035217,201.367920 541.003845,199.982346 
	C541.003845,199.982346 541.072266,199.983429 540.969727,199.429596 
	C540.682251,199.208115 540.394714,198.986633 540.101196,198.918701 
	C540.101196,198.918701 540.252136,198.889847 540.086853,198.229370 
	C538.955872,196.667374 537.824890,195.105392 536.608337,193.425354 
	C536.608337,193.425354 536.545227,193.293930 536.247559,192.858597 
	C535.859009,192.525421 535.470398,192.192245 535.059387,191.954132 
	C535.059387,191.954132 535.157043,191.956238 535.019592,191.420135 
	C534.793579,191.149063 534.567566,190.877991 534.354004,190.751160 
	C534.354004,190.751160 534.457458,190.649902 534.197266,190.083466 
	C533.494995,189.339401 532.792664,188.595337 532.067749,187.945343 
	C532.067749,187.945343 532.164490,187.944382 531.967773,187.412201 
	C531.661072,187.202194 531.354309,186.992172 530.969238,186.365570 
	C530.840088,186.073029 530.615662,185.924637 530.083069,185.374725 
	C529.803711,185.121201 529.524414,184.867661 529.260254,184.792938 
	C529.260254,184.792938 529.413147,184.698929 529.171265,184.147324 
	C528.591553,183.605499 528.011902,183.063675 527.216492,182.730743 
	C527.216492,182.730743 527.474182,182.576630 527.278870,182.137329 
	C527.102905,181.858032 526.864319,181.650818 526.474670,181.484055 
	C526.474670,181.484055 526.481384,181.390289 526.272095,181.029221 
	C526.104919,180.797424 525.889709,180.626007 525.522888,180.452927 
	C525.522888,180.452927 525.461548,180.349075 525.214722,179.982529 
	C525.016846,179.752625 524.773132,179.592331 524.111389,180.027786 
	C524.231445,179.850540 524.351562,179.673294 524.203979,179.064255 
	C523.916687,178.892273 523.629333,178.720291 523.290100,178.701447 
	C523.290100,178.701447 523.439392,178.639328 523.214172,178.150925 
	C522.922791,177.952438 522.631470,177.753937 522.309692,177.713516 
	C522.309692,177.713516 522.448730,177.632385 522.150879,177.068939 
	C521.193726,176.242233 520.236572,175.415527 519.223022,174.751480 
	C519.223022,174.751480 519.391724,174.717148 519.147827,174.207260 
	C518.822815,174.026932 518.497803,173.846603 518.157837,173.804031 
	C518.157837,173.804031 518.285767,173.750717 518.048157,173.270309 
	C517.595825,172.987427 517.143494,172.704544 516.556458,172.357468 
	C516.556458,172.357468 516.435486,172.270004 516.227600,171.938995 
	C516.057678,171.731247 515.845276,171.585358 515.495789,171.505310 
	C515.495789,171.505310 515.438721,171.429886 515.036804,170.980148 
	C514.046021,170.278091 513.055237,169.576035 512.045288,168.957458 
	C512.045288,168.957458 512.126343,168.929794 511.890198,168.425278 
	C511.442841,168.099014 510.995514,167.772766 510.456024,167.477295 
	C510.456024,167.477295 510.465668,167.380630 510.082611,166.941940 
	C509.401428,166.581573 508.720215,166.221207 508.038696,165.948547 
	C508.038696,165.948547 508.124695,165.931320 507.888794,165.405716 
	C507.412109,165.089386 506.935455,164.773056 506.191956,164.620178 
	C506.191956,164.620178 506.420288,164.406235 505.996338,163.941544 
	C504.701721,163.204773 503.407104,162.467987 502.087921,161.888382 
	C502.087921,161.888382 502.246399,161.874557 502.020935,161.364120 
	C501.687134,161.218796 501.353363,161.073486 501.016876,160.996857 
	C501.016876,160.996857 501.082764,160.977203 500.877686,160.569427 
	C500.707184,160.253159 500.448486,160.141495 499.435120,159.885529 
	C497.067078,158.252090 494.757935,156.524643 492.322052,154.999542 
	C463.268158,136.809036 434.215576,118.616234 405.109619,100.509323 
	C399.690186,97.137886 393.904541,94.350906 388.518127,90.931557 
	C377.249329,83.778053 366.162445,76.338615 354.937195,69.115517 
	C351.812012,67.104538 347.619751,66.145676 345.387268,63.475067 
	C340.138031,57.195702 333.510406,56.943913 326.394897,61.602676 
	C302.937042,76.961365 279.388092,92.180878 255.923676,107.529610 
	C240.210297,117.808182 224.607925,128.256439 208.899551,138.542740 
	C203.383362,142.154907 197.677704,145.476440 192.099792,148.996063 
	C188.474457,151.283600 184.911636,153.671188 181.341782,156.045486 
	C170.881256,163.002747 160.431244,169.975800 149.244858,177.295044 
	C148.834854,179.351028 148.066681,181.406891 148.065903,183.463028 
	C148.009216,332.901245 148.008820,482.339478 148.060150,631.777710 
	C148.060867,633.849243 148.774796,635.920471 149.221954,638.565796 
	C149.823654,638.984619 150.425369,639.403442 151.442627,640.083557 
	C151.442627,640.083557 151.916183,640.212891 151.940399,640.098145 
	C151.940399,640.098145 151.823288,640.103760 152.358307,640.803528 
	C183.269958,640.861938 214.181625,640.926331 245.093292,640.941650 
	C245.813141,640.942017 246.533264,640.389771 247.780350,640.042908 
	C248.213745,639.534973 248.647141,639.027039 249.600616,638.154236 
	C249.810806,637.567383 250.020996,636.980469 250.662277,635.631470 
	C250.700470,633.133545 250.771973,630.635620 250.772079,628.137695 
	C250.778046,497.503876 250.803268,366.870026 250.680466,236.236343 
	C250.675842,231.319260 252.144409,228.177704 256.348145,225.652649 
	C264.758575,220.600739 272.938629,215.164932 281.207184,209.877289 
	C297.185760,199.659149 313.245575,189.564270 329.087616,179.138519 
	C334.410126,175.635742 339.065521,175.799683 344.268982,179.106613 
	C360.019501,189.116501 375.909302,198.906891 391.685059,208.877426 
	C406.545166,218.269257 421.530273,227.485291 436.067566,237.357147 
	C444.121643,242.826385 451.202118,249.896698 454.713074,259.186584 
	C461.504517,277.156372 453.527710,292.033020 440.357147,301.801605 
	C432.927368,307.312286 425.272278,312.519226 417.005554,317.926361 
	C415.344696,318.637909 413.547302,319.135162 412.043518,320.093201 
	C390.911285,333.556000 370.156372,347.654816 348.576599,360.353180 
	C337.572113,366.828644 336.863983,390.067474 349.094238,397.249146 
	C380.981934,415.973724 412.372528,435.559265 443.687408,455.237457 
	C455.441376,462.623596 467.498352,470.085083 477.539429,479.512238 
	C493.662720,494.649567 493.158569,516.406128 477.783051,531.117004 
	C468.412018,540.083008 456.624878,543.079468 443.938446,543.080505 
	C412.789825,543.082947 381.641144,543.052673 350.492615,543.095581 
	C348.588623,543.098206 346.685394,543.623718 344.203522,543.944946 
	C343.770752,544.278320 343.337982,544.611755 342.974487,544.977600 
	C342.974487,544.977600 342.971771,544.901123 342.431732,545.041931 
	C342.228424,545.338501 342.025116,545.635071 341.939758,545.940125 
	C341.939758,545.940125 341.924957,545.822693 341.415161,546.023499 
	C341.268280,546.347290 341.121399,546.671082 340.999512,547.006653 
	C340.999512,547.006653 341.003143,546.979431 340.335327,547.519592 
	C340.227539,548.338501 340.026062,549.157288 340.025574,549.976257 
	C340.008942,577.799438 339.999695,605.622559 340.050354,633.445679 
	C340.052582,634.667297 340.628906,635.887817 340.963226,637.030029 
	C340.963226,637.030029 340.883331,637.051819 340.990814,637.532104 
	C340.990814,637.532104 341.273346,637.935120 341.425812,638.532349 
	C342.647949,639.240295 343.870087,639.948303 345.983917,640.921509 
	C360.477600,640.945312 374.971313,641.004883 389.464935,640.985291 
	C415.949982,640.949524 442.434967,640.866943 469.772522,640.922058 
	C474.856567,640.187500 479.940582,639.452942 485.784790,638.609802 
	C497.641052,636.007690 509.437653,633.228394 520.023560,627.021240 
	C520.023560,627.021240 520.027649,627.097900 520.647339,627.044556 
	C521.125793,626.712036 521.604187,626.379517 522.015320,626.016113 
	C522.015320,626.016113 522.025513,626.089417 522.654419,625.970032 
	C523.527710,625.406738 524.401001,624.843506 525.161804,624.247314 
	C525.161804,624.247314 525.208313,624.354919 525.850708,624.198364 
	C526.926514,623.480469 528.002380,622.762573 529.016052,622.008118 
	C529.016052,622.008118 529.024231,622.079834 529.666199,622.001953 
	C530.479309,621.356262 531.292419,620.710510 532.029724,620.035645 
	C532.029724,620.035645 532.042480,620.115784 532.670227,619.983521 
	C533.505920,619.366577 534.341553,618.749634 535.082642,618.098083 
	C535.082642,618.098083 535.082825,618.198792 535.638000,618.008179 
	C535.872620,617.703125 536.107178,617.398071 537.004639,617.005920 
	C538.458801,615.930542 539.960571,614.913391 541.359619,613.770447 
	C551.391113,605.575500 560.415283,596.467285 567.606873,584.942200 
	C567.902405,584.418640 568.197998,583.895081 568.471252,583.263916 
	C568.471252,583.263916 568.406799,583.353027 568.859924,583.072083 
	C568.959656,582.730225 569.059448,582.388367 569.064209,582.047913 
	C569.064209,582.047913 569.087341,582.140076 569.642456,581.883301 
	C569.911926,581.343201 570.181335,580.803162 570.333862,580.158264 
	C570.333862,580.158264 570.375854,580.309570 570.829895,579.957642 
	C571.059875,579.435547 571.289795,578.913391 571.492798,578.287903 
	C571.492798,578.287903 571.427429,578.372437 571.879211,578.088867 
	C571.985291,577.749390 572.091370,577.409912 572.090881,577.067749 
	C572.090881,577.067749 572.118835,577.170654 572.671631,576.865295 
	C572.862976,576.268799 573.054321,575.672302 573.115356,575.072632 
	C573.115356,575.072632 573.148926,575.198669 573.696838,574.884827 
	C573.885864,574.287354 574.074829,573.689819 574.133545,573.085388 
	C574.133545,573.085388 574.169434,573.210815 574.706421,572.879944 
	C574.889954,572.279541 575.073486,571.679138 575.122742,571.078735 
	C575.122742,571.078735 575.162109,571.207092 575.715210,570.896851 
	C575.901794,570.294800 576.088440,569.692688 576.137390,569.084412 
	C576.137390,569.084412 576.174805,569.217041 576.714600,568.880432 
	C576.871704,568.267944 577.028748,567.655518 577.075562,567.050781 
	C577.075562,567.050781 577.107910,567.156494 577.650818,566.834290 
	C577.794312,566.227783 577.937805,565.621277 578.010437,565.016357 
	C578.010437,565.016357 578.042114,565.079651 578.616821,564.641663 
	C584.085510,550.647827 587.744324,536.260498 588.734558,520.583252 
	C588.762207,511.385498 588.789856,502.187775 588.840027,492.313721 
	C587.823059,483.879028 586.806091,475.444366 585.856567,466.220978 
	C583.609436,459.096252 581.362305,451.971558 579.092834,444.936523 
	C579.092834,444.936523 579.184937,444.928284 579.101196,444.199463 
	C577.915344,441.718628 576.729492,439.237793 575.578735,436.608032 
	C575.578735,436.608032 575.541748,436.459595 575.283508,435.878296 
	C574.520020,434.586792 573.756531,433.295288 573.000000,432.000000 
	C573.000000,432.000000 572.994385,432.006592 572.936279,431.461395 
	C572.651794,431.250092 572.367249,431.038788 572.069824,430.937439 
	C572.069824,430.937439 572.179810,430.924591 572.057556,430.420074 
	C571.858582,430.156128 571.659668,429.892151 571.500732,429.611481 
	C571.500732,429.611481 571.518005,429.571808 571.292297,429.006287 
	C570.890442,428.563873 570.488525,428.121460 570.022217,427.006195 
	C553.448792,402.856873 528.935547,388.260468 505.034149,372.268524 
	C509.789154,368.516663 514.713684,364.956543 519.244568,360.951172 
	C522.762634,357.841217 525.789490,354.175690 529.612976,350.705597 
	C529.819946,350.167297 530.026978,349.629028 530.085632,349.069672 
	C530.085632,349.069672 530.094482,349.219177 530.619263,349.013519 
	C530.808777,348.697235 530.998352,348.380951 531.060120,348.057678 
z"/>
<path fill="#0147A4" opacity="1.000000" stroke="none" 
	d="
M529.034668,350.757080 
	C525.789490,354.175690 522.762634,357.841217 519.244568,360.951172 
	C514.713684,364.956543 509.789154,368.516663 504.666321,372.577637 
	C502.843170,372.112305 501.337891,371.418396 499.940186,370.551147 
	C484.537659,360.994019 469.062164,351.550262 453.789948,341.788727 
	C441.634613,334.019348 429.732941,325.853088 417.718689,317.862976 
	C425.272278,312.519226 432.927368,307.312286 440.357147,301.801605 
	C453.527710,292.033020 461.504517,277.156372 454.713074,259.186584 
	C451.202118,249.896698 444.121643,242.826385 436.067566,237.357147 
	C421.530273,227.485291 406.545166,218.269257 391.685059,208.877426 
	C375.909302,198.906891 360.019501,189.116501 344.268982,179.106613 
	C339.065521,175.799683 334.410126,175.635742 329.087616,179.138519 
	C313.245575,189.564270 297.185760,199.659149 281.207184,209.877289 
	C272.938629,215.164932 264.758575,220.600739 256.348145,225.652649 
	C252.144409,228.177704 250.675842,231.319260 250.680466,236.236343 
	C250.803268,366.870026 250.778046,497.503876 250.772079,628.137695 
	C250.771973,630.635620 250.700470,633.133545 250.351227,635.524170 
	C250.003235,632.086426 249.934097,628.755981 249.933990,625.425598 
	C249.929932,496.162628 249.932190,366.899689 249.933609,237.636734 
	C249.933624,235.857880 249.933594,234.079010 249.933594,232.300156 
	C249.626297,232.300964 249.319000,232.301788 249.011703,232.302597 
	C249.011703,233.948135 249.011749,235.593689 249.011703,237.239243 
	C249.010239,293.208771 248.998886,349.178284 249.009644,405.147827 
	C249.024597,482.938263 249.056122,560.728699 249.080536,638.519104 
	C248.647141,639.027039 248.213745,639.534973 247.033142,640.041382 
	C214.798386,640.061157 183.310837,640.082458 151.823288,640.103760 
	C151.823288,640.103760 151.940399,640.098145 151.891052,639.967163 
	C151.570175,639.831543 151.298615,639.826965 151.027069,639.822327 
	C150.425369,639.403442 149.823654,638.984619 149.442505,638.004700 
	C149.446106,634.832336 149.039810,632.221069 149.039291,629.609741 
	C149.010040,482.204315 149.007980,334.798920 149.055954,187.393509 
	C149.057083,183.909790 149.656647,180.426270 149.977097,176.942657 
	C160.431244,169.975800 170.881256,163.002747 181.341782,156.045486 
	C184.911636,153.671188 188.474457,151.283600 192.099792,148.996063 
	C197.677704,145.476440 203.383362,142.154907 208.899551,138.542740 
	C224.607925,128.256439 240.210297,117.808182 255.923676,107.529610 
	C279.388092,92.180878 302.937042,76.961365 326.394897,61.602676 
	C333.510406,56.943913 340.138031,57.195702 345.387268,63.475067 
	C347.619751,66.145676 351.812012,67.104538 354.937195,69.115517 
	C366.162445,76.338615 377.249329,83.778053 388.518127,90.931557 
	C393.904541,94.350906 399.690186,97.137886 405.109619,100.509323 
	C434.215576,118.616234 463.268158,136.809036 492.322052,154.999542 
	C494.757935,156.524643 497.067078,158.252090 499.893982,160.227158 
	C500.565186,160.760178 500.808502,160.896317 501.082764,160.977203 
	C501.082764,160.977203 501.016876,160.996857 501.141846,161.208801 
	C501.593353,161.572021 501.919861,161.723282 502.246399,161.874557 
	C502.246399,161.874557 502.087921,161.888382 502.187561,162.165527 
	C503.664886,163.097198 505.042572,163.751724 506.420288,164.406250 
	C506.420288,164.406235 506.191956,164.620178 506.305054,164.879150 
	C506.987030,165.402527 507.555847,165.666916 508.124695,165.931320 
	C508.124695,165.931320 508.038696,165.948547 508.147522,166.223236 
	C508.992798,166.792160 509.729248,167.086395 510.465668,167.380630 
	C510.465668,167.380630 510.456024,167.477295 510.448578,167.798279 
	C511.002869,168.389450 511.564606,168.659622 512.126343,168.929779 
	C512.126343,168.929794 512.045288,168.957458 512.071411,169.266479 
	C513.211304,170.193619 514.325012,170.811752 515.438721,171.429886 
	C515.438721,171.429886 515.495789,171.505310 515.463135,171.802277 
	C515.765503,172.156174 516.100464,172.213089 516.435486,172.270004 
	C516.435486,172.270004 516.556458,172.357468 516.537231,172.730011 
	C517.107239,173.318619 517.696533,173.534668 518.285767,173.750717 
	C518.285767,173.750717 518.157837,173.804031 518.243042,174.030548 
	C518.682800,174.410416 519.037231,174.563782 519.391724,174.717148 
	C519.391724,174.717148 519.223022,174.751480 519.264771,175.025085 
	C520.353943,176.076599 521.401306,176.854492 522.448730,177.632385 
	C522.448730,177.632385 522.309692,177.713516 522.338867,177.949402 
	C522.725159,178.336639 523.082275,178.487976 523.439392,178.639328 
	C523.439392,178.639328 523.290100,178.701447 523.333252,178.940399 
	C523.741455,179.284927 524.106506,179.390503 524.471619,179.496063 
	C524.351562,179.673294 524.231445,179.850540 524.259338,180.077011 
	C524.758728,180.200516 525.110107,180.274796 525.461548,180.349075 
	C525.461548,180.349075 525.522888,180.452927 525.483765,180.784576 
	C525.790283,181.207565 526.135803,181.298920 526.481384,181.390289 
	C526.481384,181.390289 526.474670,181.484055 526.451904,181.809067 
	C526.777466,182.281601 527.125793,182.429108 527.474182,182.576630 
	C527.474182,182.576630 527.216492,182.730743 527.279541,182.979309 
	C528.032776,183.718216 528.722961,184.208572 529.413147,184.698914 
	C529.413147,184.698929 529.260254,184.792938 529.297485,185.009506 
	C529.655090,185.457520 529.975464,185.688965 530.295898,185.920410 
	C530.615662,185.924637 530.840088,186.073029 531.108337,186.840393 
	C531.553101,187.524948 531.858826,187.734665 532.164490,187.944382 
	C532.164490,187.944382 532.067749,187.945343 532.075195,188.255829 
	C532.874207,189.260849 533.665833,189.955368 534.457458,190.649902 
	C534.457458,190.649902 534.354004,190.751160 534.336365,190.975769 
	C534.598145,191.452332 534.877625,191.704285 535.157043,191.956238 
	C535.157043,191.956238 535.059387,191.954132 535.079590,192.245361 
	C535.581543,192.789032 536.063416,193.041473 536.545227,193.293930 
	C536.545227,193.293930 536.608337,193.425354 536.517456,193.825500 
	C537.701721,195.780380 538.976929,197.335114 540.252136,198.889847 
	C540.252136,198.889847 540.101196,198.918701 540.172119,199.110382 
	C540.519470,199.529190 540.795898,199.756317 541.072266,199.983429 
	C541.072266,199.983429 541.003845,199.982346 541.042969,200.304779 
	C542.128540,202.055969 543.174927,203.484711 544.221313,204.913452 
	C544.221313,204.913467 544.104431,204.925858 544.098755,205.234558 
	C544.915894,206.508957 545.738831,207.474670 546.561707,208.440369 
	C546.561707,208.440369 546.540588,208.521225 546.465210,208.848480 
	C546.666992,209.421906 546.944153,209.668091 547.221313,209.914276 
	C547.221313,209.914276 547.105591,209.921402 547.077148,210.244019 
	C548.097778,212.351944 549.146912,214.137253 550.196045,215.922546 
	C550.196045,215.922546 550.092834,215.930038 550.069336,216.277283 
	C551.562012,220.061996 553.078186,223.499451 554.594421,226.936920 
	C555.728577,234.974213 556.862671,243.011505 558.009827,251.959641 
	C558.015259,261.248627 558.007690,269.626740 557.835205,278.378967 
	C557.132568,283.869324 556.594971,288.985596 556.057312,294.101898 
	C556.057312,294.101898 556.041260,294.017303 555.777893,294.238495 
	C553.050232,303.364960 550.585876,312.270264 548.121582,321.175537 
	C548.121582,321.175537 548.097412,321.070801 547.808838,321.170776 
	C546.167419,324.297119 544.814514,327.323517 543.461670,330.349915 
	C543.461670,330.349915 543.477356,330.092163 543.132202,330.242645 
	C542.220764,331.645142 541.654419,332.897156 541.088135,334.149170 
	C541.088135,334.149170 541.063660,334.050446 540.854248,334.181213 
	C540.613098,334.673126 540.581299,335.034271 540.549438,335.395386 
	C540.549438,335.395386 540.516968,335.466766 540.164307,335.431458 
	C538.915100,336.992584 538.018616,338.589050 537.122070,340.185486 
	C537.122070,340.185486 537.102722,340.095428 536.785767,340.106934 
	C535.700012,341.486115 534.931213,342.853790 534.162354,344.221497 
	C534.162354,344.221466 534.128235,344.098114 533.909424,344.203674 
	C533.555908,344.666809 533.421265,345.024384 533.286621,345.381958 
	C533.286621,345.381958 533.252991,345.199402 533.013550,345.277405 
	C532.528748,345.931213 532.283325,346.507080 532.037964,347.082916 
	C532.037964,347.082916 532.010193,347.017487 531.797119,347.131104 
	C531.414673,347.558075 531.245300,347.871399 531.075867,348.184723 
	C531.075867,348.184723 531.060120,348.057678 530.857178,348.160492 
	C530.467712,348.581940 530.281067,348.900543 530.094482,349.219177 
	C530.094482,349.219177 530.085632,349.069672 529.887390,349.167084 
	C529.471008,349.762024 529.252808,350.259552 529.034668,350.757080 
z"/>
<path fill="#0079D8" opacity="1.000000" stroke="none" 
	d="
M417.362122,317.894653 
	C429.732941,325.853088 441.634613,334.019348 453.789948,341.788727 
	C469.062164,351.550262 484.537659,360.994019 499.940186,370.551147 
	C501.337891,371.418396 502.843170,372.112305 504.650635,372.926178 
	C528.935547,388.260468 553.448792,402.856873 570.060913,427.699646 
	C570.572327,428.785980 571.045166,429.178894 571.518005,429.571838 
	C571.518005,429.571808 571.500732,429.611481 571.431030,429.905029 
	C571.634216,430.440582 571.906982,430.682587 572.179810,430.924591 
	C572.179810,430.924591 572.069824,430.937439 572.147217,431.134369 
	C572.481262,431.556396 572.737854,431.781494 572.994385,432.006592 
	C572.994385,432.006592 573.000000,432.000000 573.001465,432.370850 
	C573.849121,433.980988 574.695435,435.220306 575.541748,436.459595 
	C575.541748,436.459595 575.578735,436.608032 575.414612,437.041748 
	C576.561951,439.959717 577.873413,442.444000 579.184937,444.928284 
	C579.184937,444.928284 579.092834,444.936523 579.066650,445.306641 
	C581.037476,452.789001 583.034607,459.901215 585.020020,467.457397 
	C585.381653,473.154297 585.519958,478.438538 586.215332,483.648499 
	C586.638855,486.821564 587.921021,489.880066 588.817505,492.990021 
	C588.789856,502.187775 588.762207,511.385498 588.380981,520.388428 
	C588.027466,512.205322 588.027466,504.216949 588.027466,496.228607 
	C587.004822,502.029968 586.908203,507.826294 587.023804,513.618408 
	C587.314514,528.189148 584.398193,542.245972 580.433777,556.150635 
	C579.589050,559.113464 578.836914,562.102600 578.042114,565.079651 
	C578.042114,565.079651 578.010437,565.016357 577.775879,565.184814 
	C577.396912,565.954346 577.252441,566.555420 577.107910,567.156494 
	C577.107910,567.156494 577.075562,567.050781 576.839355,567.205322 
	C576.460327,567.978882 576.317566,568.597961 576.174805,569.217041 
	C576.174805,569.217041 576.137390,569.084412 575.895935,569.218750 
	C575.490356,569.971069 575.326233,570.589050 575.162109,571.207092 
	C575.162109,571.207092 575.122742,571.078735 574.883911,571.217529 
	C574.486450,571.974487 574.327942,572.592651 574.169434,573.210815 
	C574.169434,573.210815 574.133545,573.085388 573.889282,573.217529 
	C573.479736,573.966003 573.314331,574.582336 573.148926,575.198669 
	C573.148926,575.198669 573.115356,575.072632 572.878174,575.209534 
	C572.466919,575.954529 572.292908,576.562561 572.118835,577.170654 
	C572.118835,577.170654 572.090881,577.067749 571.877502,577.186401 
	C571.585266,577.660828 571.506348,578.016663 571.427429,578.372437 
	C571.427429,578.372437 571.492798,578.287903 571.148254,578.355103 
	C570.661072,579.051453 570.518433,579.680481 570.375854,580.309570 
	C570.375854,580.309570 570.333862,580.158264 570.056213,580.263977 
	C569.548157,580.959778 569.317749,581.549927 569.087341,582.140076 
	C569.087341,582.140076 569.064209,582.047913 568.855225,582.173950 
	C568.566406,582.650940 568.486633,583.002014 568.406860,583.353027 
	C568.406799,583.353027 568.471252,583.263916 568.133423,583.337280 
	C567.551880,584.015076 567.308228,584.619568 567.064514,585.223999 
	C560.415283,596.467285 551.391113,605.575500 541.359619,613.770447 
	C539.960571,614.913391 538.458801,615.930542 536.385620,617.131958 
	C535.538696,617.571594 535.310791,617.885193 535.082825,618.198792 
	C535.082825,618.198792 535.082642,618.098083 534.787354,618.098267 
	C533.675476,618.770813 532.858948,619.443298 532.042480,620.115784 
	C532.042480,620.115784 532.029724,620.035645 531.732422,620.057068 
	C530.631470,620.745605 529.827820,621.412720 529.024231,622.079834 
	C529.024231,622.079834 529.016052,622.008118 528.679321,622.015137 
	C527.297852,622.799683 526.253052,623.577332 525.208313,624.354919 
	C525.208313,624.354919 525.161804,624.247314 524.872070,624.198364 
	C523.730042,624.796143 522.877808,625.442810 522.025513,626.089417 
	C522.025513,626.089417 522.015320,626.016113 521.735535,626.038818 
	C520.979675,626.406982 520.503662,626.752441 520.027649,627.097900 
	C520.027649,627.097900 520.023560,627.021240 519.663574,627.027100 
	C508.240082,630.414917 497.172333,633.783142 486.127686,637.225464 
	C485.651215,637.373962 485.387482,638.205200 485.024628,638.718384 
	C479.940582,639.452942 474.856567,640.187500 469.026245,640.612061 
	C467.460541,640.201782 466.641113,640.014038 465.821655,640.013794 
	C426.863098,640.000305 387.904572,639.996887 348.946045,640.031555 
	C347.661224,640.032715 346.376801,640.438965 345.092194,640.656372 
	C343.870087,639.948303 342.647949,639.240295 341.463837,638.102417 
	C341.295685,637.465637 341.089508,637.258728 340.883331,637.051819 
	C340.883331,637.051819 340.963226,637.030029 340.966064,636.592346 
	C340.980316,606.429565 340.991730,576.704529 341.003143,546.979431 
	C341.003143,546.979431 340.999512,547.006653 341.219482,546.874878 
	C341.601288,546.436279 341.763123,546.129456 341.924957,545.822693 
	C341.924957,545.822693 341.939758,545.940125 342.138580,545.847534 
	C342.548859,545.470337 342.760315,545.185730 342.971771,544.901123 
	C342.971771,544.901123 342.974487,544.977600 343.415344,544.980591 
	C377.803345,544.983643 411.750488,544.983643 445.697632,544.983643 
	C445.696594,544.624390 445.695587,544.265137 445.694550,543.905884 
	C412.056976,543.905884 378.419373,543.905884 344.781799,543.905884 
	C346.685394,543.623718 348.588623,543.098206 350.492615,543.095581 
	C381.641144,543.052673 412.789825,543.082947 443.938446,543.080505 
	C456.624878,543.079468 468.412018,540.083008 477.783051,531.117004 
	C493.158569,516.406128 493.662720,494.649567 477.539429,479.512238 
	C467.498352,470.085083 455.441376,462.623596 443.687408,455.237457 
	C412.372528,435.559265 380.981934,415.973724 349.094238,397.249146 
	C336.863983,390.067474 337.572113,366.828644 348.576599,360.353180 
	C370.156372,347.654816 390.911285,333.556000 412.043518,320.093201 
	C413.547302,319.135162 415.344696,318.637909 417.362122,317.894653 
z"/>
<path fill="#012690" opacity="1.000000" stroke="none" 
	d="
M149.610977,177.118851 
	C149.656647,180.426270 149.057083,183.909790 149.055954,187.393509 
	C149.007980,334.798920 149.010040,482.204315 149.039291,629.609741 
	C149.039810,632.221069 149.446106,634.832336 149.409454,637.717773 
	C148.774796,635.920471 148.060867,633.849243 148.060150,631.777710 
	C148.008820,482.339478 148.009216,332.901245 148.065903,183.463028 
	C148.066681,181.406891 148.834854,179.351028 149.610977,177.118851 
z"/>
<path fill="#011D8F" opacity="1.000000" stroke="none" 
	d="
M249.340576,638.336670 
	C249.056122,560.728699 249.024597,482.938263 249.009644,405.147827 
	C248.998886,349.178284 249.010239,293.208771 249.011703,237.239243 
	C249.011749,235.593689 249.011703,233.948135 249.011703,232.302597 
	C249.319000,232.301788 249.626297,232.300964 249.933594,232.300156 
	C249.933594,234.079010 249.933624,235.857880 249.933609,237.636734 
	C249.932190,366.899689 249.929932,496.162628 249.933990,625.425598 
	C249.934097,628.755981 250.003235,632.086426 250.135681,635.905212 
	C250.020996,636.980469 249.810806,637.567383 249.340576,638.336670 
z"/>
<path fill="#004BCA" opacity="1.000000" stroke="none" 
	d="
M345.538055,640.788940 
	C346.376801,640.438965 347.661224,640.032715 348.946045,640.031555 
	C387.904572,639.996887 426.863098,640.000305 465.821655,640.013794 
	C466.641113,640.014038 467.460541,640.201782 468.599976,640.552979 
	C442.434967,640.866943 415.949982,640.949524 389.464935,640.985291 
	C374.971313,641.004883 360.477600,640.945312 345.538055,640.788940 
z"/>
<path fill="#0163D2" opacity="1.000000" stroke="none" 
	d="
M344.492676,543.925415 
	C378.419373,543.905884 412.056976,543.905884 445.694550,543.905884 
	C445.695587,544.265137 445.696594,544.624390 445.697632,544.983643 
	C411.750488,544.983643 377.803345,544.983643 343.380707,544.964355 
	C343.337982,544.611755 343.770752,544.278320 344.492676,543.925415 
z"/>
<path fill="#00158B" opacity="1.000000" stroke="none" 
	d="
M152.090790,640.453613 
	C183.310837,640.082458 214.798386,640.061157 246.769592,640.067627 
	C246.533264,640.389771 245.813141,640.942017 245.093292,640.941650 
	C214.181625,640.926331 183.269958,640.861938 152.090790,640.453613 
z"/>
<path fill="#0360D1" opacity="1.000000" stroke="none" 
	d="
M578.329468,564.860657 
	C578.836914,562.102600 579.589050,559.113464 580.433777,556.150635 
	C584.398193,542.245972 587.314514,528.189148 587.023804,513.618408 
	C586.908203,507.826294 587.004822,502.029968 588.027466,496.228607 
	C588.027466,504.216949 588.027466,512.205322 588.050476,520.671387 
	C587.744324,536.260498 584.085510,550.647827 578.329468,564.860657 
z"/>
<path fill="#0149CA" opacity="1.000000" stroke="none" 
	d="
M340.669250,547.249512 
	C340.991730,576.704529 340.980316,606.429565 340.953369,636.631775 
	C340.628906,635.887817 340.052582,634.667297 340.050354,633.445679 
	C339.999695,605.622559 340.008942,577.799438 340.025574,549.976257 
	C340.026062,549.157288 340.227539,548.338501 340.669250,547.249512 
z"/>
<path fill="#0D66D1" opacity="1.000000" stroke="none" 
	d="
M485.404724,638.664062 
	C485.387482,638.205200 485.651215,637.373962 486.127686,637.225464 
	C497.172333,633.783142 508.240082,630.414917 519.697632,627.044739 
	C509.437653,633.228394 497.641052,636.007690 485.404724,638.664062 
z"/>
<path fill="#082B94" opacity="1.000000" stroke="none" 
	d="
M548.418274,320.970825 
	C550.585876,312.270264 553.050232,303.364960 555.820862,294.236328 
	C553.656494,302.930695 551.185730,311.848389 548.418274,320.970825 
z"/>
<path fill="#0360D1" opacity="1.000000" stroke="none" 
	d="
M588.828735,492.651855 
	C587.921021,489.880066 586.638855,486.821564 586.215332,483.648499 
	C585.519958,478.438538 585.381653,473.154297 585.209229,467.456543 
	C585.410034,467.011719 585.789185,467.009674 585.789185,467.009674 
	C586.806091,475.444366 587.823059,483.879028 588.828735,492.651855 
z"/>
<path fill="#0D66D1" opacity="1.000000" stroke="none" 
	d="
M585.822876,466.615326 
	C585.789185,467.009674 585.410034,467.011719 585.220825,467.012573 
	C583.034607,459.901215 581.037476,452.789001 579.077759,445.261810 
	C581.362305,451.971558 583.609436,459.096252 585.822876,466.615326 
z"/>
<path fill="#00158B" opacity="1.000000" stroke="none" 
	d="
M558.000122,278.004883 
	C558.007690,269.626740 558.015259,261.248627 558.030151,252.397614 
	C558.403015,255.224533 558.973572,258.517334 559.086487,261.825714 
	C559.259766,266.904633 559.118225,271.994263 558.776001,277.541504 
	C558.441711,278.003662 558.000061,278.004883 558.000122,278.004883 
z"/>
<path fill="#082B94" opacity="1.000000" stroke="none" 
	d="
M557.835144,278.378967 
	C558.000061,278.004883 558.441711,278.003662 558.662476,277.997559 
	C558.173462,283.226288 557.463684,288.461060 556.405579,293.898865 
	C556.594971,288.985596 557.132568,283.869324 557.835144,278.378967 
z"/>
<path fill="#082B94" opacity="1.000000" stroke="none" 
	d="
M554.501953,226.600067 
	C553.078186,223.499451 551.562012,220.061996 550.081360,216.226959 
	C551.547791,219.307327 552.978699,222.785263 554.501953,226.600067 
z"/>
<path fill="#082B94" opacity="1.000000" stroke="none" 
	d="
M543.699707,330.114258 
	C544.814514,327.323517 546.167419,324.297119 547.862427,321.175110 
	C546.782288,324.012543 545.360046,326.945587 543.699707,330.114258 
z"/>
<path fill="#0D66D1" opacity="1.000000" stroke="none" 
	d="
M579.143066,444.563873 
	C577.873413,442.444000 576.561951,439.959717 575.397095,437.116211 
	C576.729492,439.237793 577.915344,441.718628 579.143066,444.563873 
z"/>
<path fill="#082B94" opacity="1.000000" stroke="none" 
	d="
M550.140686,215.570435 
	C549.146912,214.137253 548.097778,212.351944 547.091553,210.187851 
	C548.117981,211.612137 549.101685,213.415237 550.140686,215.570435 
z"/>
<path fill="#082B94" opacity="1.000000" stroke="none" 
	d="
M540.169495,198.559601 
	C538.976929,197.335114 537.701721,195.780380 536.560181,193.884521 
	C537.824890,195.105392 538.955872,196.667374 540.169495,198.559601 
z"/>
<path fill="#082B94" opacity="1.000000" stroke="none" 
	d="
M537.409729,340.021973 
	C538.018616,338.589050 538.915100,336.992584 540.178467,335.468018 
	C539.595947,336.979462 538.646667,338.418976 537.409729,340.021973 
z"/>
<path fill="#082B94" opacity="1.000000" stroke="none" 
	d="
M534.447876,344.064514 
	C534.931213,342.853790 535.700012,341.486115 536.830811,340.116699 
	C536.372986,341.379120 535.553162,342.643341 534.447876,344.064514 
z"/>
<path fill="#082B94" opacity="1.000000" stroke="none" 
	d="
M506.208313,164.173889 
	C505.042572,163.751724 503.664886,163.097198 502.199829,162.086945 
	C503.407104,162.467987 504.701721,163.204773 506.208313,164.173889 
z"/>
<path fill="#082B94" opacity="1.000000" stroke="none" 
	d="
M544.129517,204.587738 
	C543.174927,203.484711 542.128540,202.055969 541.058044,200.274048 
	C542.035217,201.367920 543.036438,202.814972 544.129517,204.587738 
z"/>
<path fill="#0D66D1" opacity="1.000000" stroke="none" 
	d="
M575.412598,436.168945 
	C574.695435,435.220306 573.849121,433.980988 572.997925,432.372742 
	C573.756531,433.295288 574.520020,434.586792 575.412598,436.168945 
z"/>
<path fill="#082B94" opacity="1.000000" stroke="none" 
	d="
M515.237793,171.205017 
	C514.325012,170.811752 513.211304,170.193619 512.081055,169.224731 
	C513.055237,169.576035 514.046021,170.278091 515.237793,171.205017 
z"/>
<path fill="#0D66D1" opacity="1.000000" stroke="none" 
	d="
M525.529541,624.276611 
	C526.253052,623.577332 527.297852,622.799683 528.710449,622.033386 
	C528.002380,622.762573 526.926514,623.480469 525.529541,624.276611 
z"/>
<path fill="#082B94" opacity="1.000000" stroke="none" 
	d="
M546.408752,208.165253 
	C545.738831,207.474670 544.915894,206.508957 544.109863,205.176849 
	C544.836426,205.837006 545.546082,206.863556 546.408752,208.165253 
z"/>
<path fill="#082B94" opacity="1.000000" stroke="none" 
	d="
M522.299805,177.350662 
	C521.401306,176.854492 520.353943,176.076599 519.292969,174.943756 
	C520.236572,175.415527 521.193726,176.242233 522.299805,177.350662 
z"/>
<path fill="#082B94" opacity="1.000000" stroke="none" 
	d="
M541.372314,333.979919 
	C541.654419,332.897156 542.220764,331.645142 543.148560,330.370728 
	C542.892212,331.502441 542.274353,332.656555 541.372314,333.979919 
z"/>
<path fill="#082B94" opacity="1.000000" stroke="none" 
	d="
M534.327393,190.366684 
	C533.665833,189.955368 532.874207,189.260849 532.086487,188.208801 
	C532.792664,188.595337 533.494995,189.339401 534.327393,190.366684 
z"/>
<path fill="#0D66D1" opacity="1.000000" stroke="none" 
	d="
M522.339966,626.029724 
	C522.877808,625.442810 523.730042,624.796143 524.928284,624.214844 
	C524.401001,624.843506 523.527710,625.406738 522.339966,626.029724 
z"/>
<path fill="#0D66D1" opacity="1.000000" stroke="none" 
	d="
M529.345215,622.040894 
	C529.827820,621.412720 530.631470,620.745605 531.770325,620.071655 
	C531.292419,620.710510 530.479309,621.356262 529.345215,622.040894 
z"/>
<path fill="#0D66D1" opacity="1.000000" stroke="none" 
	d="
M532.356323,620.049683 
	C532.858948,619.443298 533.675476,618.770813 534.834595,618.115479 
	C534.341553,618.749634 533.505920,619.366577 532.356323,620.049683 
z"/>
<path fill="#082B94" opacity="1.000000" stroke="none" 
	d="
M510.274139,167.161285 
	C509.729248,167.086395 508.992798,166.792160 508.147705,166.179382 
	C508.720215,166.221207 509.401428,166.581573 510.274139,167.161285 
z"/>
<path fill="#082B94" opacity="1.000000" stroke="none" 
	d="
M529.292236,184.423126 
	C528.722961,184.208572 528.032776,183.718216 527.387390,182.874863 
	C528.011902,183.063675 528.591553,183.605499 529.292236,184.423126 
z"/>
<path fill="#0360D1" opacity="1.000000" stroke="none" 
	d="
M567.335693,585.083130 
	C567.308228,584.619568 567.551880,584.015076 568.144592,583.391113 
	C568.197998,583.895081 567.902405,584.418640 567.335693,585.083130 
z"/>
<path fill="#082B94" opacity="1.000000" stroke="none" 
	d="
M532.294800,346.933838 
	C532.283325,346.507080 532.528748,345.931213 533.102478,345.303955 
	C533.137817,345.763306 532.844727,346.274048 532.294800,346.933838 
z"/>
<path fill="#0D66D1" opacity="1.000000" stroke="none" 
	d="
M520.337524,627.071228 
	C520.503662,626.752441 520.979675,626.406982 521.769165,626.054260 
	C521.604187,626.379517 521.125793,626.712036 520.337524,627.071228 
z"/>
<path fill="#0360D1" opacity="1.000000" stroke="none" 
	d="
M575.438660,571.052002 
	C575.326233,570.589050 575.490356,569.971069 575.964722,569.221802 
	C576.088440,569.692688 575.901794,570.294800 575.438660,571.052002 
z"/>
<path fill="#0360D1" opacity="1.000000" stroke="none" 
	d="
M577.379395,566.995361 
	C577.252441,566.555420 577.396912,565.954346 577.811279,565.184021 
	C577.937805,565.621277 577.794312,566.227783 577.379395,566.995361 
z"/>
<path fill="#0360D1" opacity="1.000000" stroke="none" 
	d="
M569.364868,582.011719 
	C569.317749,581.549927 569.548157,580.959778 570.114685,580.316406 
	C570.181335,580.803162 569.911926,581.343201 569.364868,582.011719 
z"/>
<path fill="#0360D1" opacity="1.000000" stroke="none" 
	d="
M570.602905,580.133606 
	C570.518433,579.680481 570.661072,579.051453 571.161743,578.406860 
	C571.289795,578.913391 571.059875,579.435547 570.602905,580.133606 
z"/>
<path fill="#0360D1" opacity="1.000000" stroke="none" 
	d="
M572.395264,577.017944 
	C572.292908,576.562561 572.466919,575.954529 572.943359,575.211182 
	C573.054321,575.672302 572.862976,576.268799 572.395264,577.017944 
z"/>
<path fill="#0360D1" opacity="1.000000" stroke="none" 
	d="
M573.422913,575.041748 
	C573.314331,574.582336 573.479736,573.966003 573.954468,573.220947 
	C574.074829,573.689819 573.885864,574.287354 573.422913,575.041748 
z"/>
<path fill="#0360D1" opacity="1.000000" stroke="none" 
	d="
M576.444702,569.048706 
	C576.317566,568.597961 576.460327,567.978882 576.894470,567.201416 
	C577.028748,567.655518 576.871704,568.267944 576.444702,569.048706 
z"/>
<path fill="#0360D1" opacity="1.000000" stroke="none" 
	d="
M574.437927,573.045410 
	C574.327942,572.592651 574.486450,571.974487 574.950989,571.217529 
	C575.073486,571.679138 574.889954,572.279541 574.437927,573.045410 
z"/>
<path fill="#0D66D1" opacity="1.000000" stroke="none" 
	d="
M571.405151,429.289062 
	C571.045166,429.178894 570.572327,428.785980 570.093140,428.036072 
	C570.488525,428.121460 570.890442,428.563873 571.405151,429.289062 
z"/>
<path fill="#082B94" opacity="1.000000" stroke="none" 
	d="
M529.323853,350.731323 
	C529.252808,350.259552 529.471008,349.762024 529.961548,349.177612 
	C530.026978,349.629028 529.819946,350.167297 529.323853,350.731323 
z"/>
<path fill="#082B94" opacity="1.000000" stroke="none" 
	d="
M512.008301,168.677521 
	C511.564606,168.659622 511.002869,168.389450 510.494629,167.782898 
	C510.995514,167.772766 511.442841,168.099014 512.008301,168.677521 
z"/>
<path fill="#082B94" opacity="1.000000" stroke="none" 
	d="
M518.166992,173.510513 
	C517.696533,173.534668 517.107239,173.318619 516.604614,172.762115 
	C517.143494,172.704544 517.595825,172.987427 518.166992,173.510513 
z"/>
<path fill="#082B94" opacity="1.000000" stroke="none" 
	d="
M536.396362,193.076263 
	C536.063416,193.041473 535.581543,192.789032 535.090759,192.197815 
	C535.470398,192.192245 535.859009,192.525421 536.396362,193.076263 
z"/>
<path fill="#082B94" opacity="1.000000" stroke="none" 
	d="
M508.006744,165.668518 
	C507.555847,165.666916 506.987030,165.402527 506.438477,164.797424 
	C506.935455,164.773056 507.412109,165.089386 508.006744,165.668518 
z"/>
<path fill="#082B94" opacity="1.000000" stroke="none" 
	d="
M519.269775,174.462204 
	C519.037231,174.563782 518.682800,174.410416 518.250549,173.961655 
	C518.497803,173.846603 518.822815,174.026932 519.269775,174.462204 
z"/>
<path fill="#082B94" opacity="1.000000" stroke="none" 
	d="
M527.376526,182.356964 
	C527.125793,182.429108 526.777466,182.281601 526.496094,181.824890 
	C526.864319,181.650818 527.102905,181.858032 527.376526,182.356964 
z"/>
<path fill="#0360D1" opacity="1.000000" stroke="none" 
	d="
M568.633423,583.212524 
	C568.486633,583.002014 568.566406,582.650940 568.902710,582.173218 
	C569.059448,582.388367 568.959656,582.730225 568.633423,583.212524 
z"/>
<path fill="#082B94" opacity="1.000000" stroke="none" 
	d="
M526.376709,181.209747 
	C526.135803,181.298920 525.790283,181.207565 525.535522,180.815582 
	C525.889709,180.626007 526.104919,180.797424 526.376709,181.209747 
z"/>
<path fill="#0D66D1" opacity="1.000000" stroke="none" 
	d="
M535.360413,618.103516 
	C535.310791,617.885193 535.538696,617.571594 536.054199,617.175476 
	C536.107178,617.398071 535.872620,617.703125 535.360413,618.103516 
z"/>
<path fill="#082B94" opacity="1.000000" stroke="none" 
	d="
M525.338135,180.165802 
	C525.110107,180.274796 524.758728,180.200516 524.445435,179.813950 
	C524.773132,179.592331 525.016846,179.752625 525.338135,180.165802 
z"/>
<path fill="#082B94" opacity="1.000000" stroke="none" 
	d="
M524.337769,179.280151 
	C524.106506,179.390503 523.741455,179.284927 523.359192,178.863831 
	C523.629333,178.720291 523.916687,178.892273 524.337769,179.280151 
z"/>
<path fill="#082B94" opacity="1.000000" stroke="none" 
	d="
M523.326782,178.395126 
	C523.082275,178.487976 522.725159,178.336639 522.354065,177.870361 
	C522.631470,177.753937 522.922791,177.952438 523.326782,178.395126 
z"/>
<path fill="#082B94" opacity="1.000000" stroke="none" 
	d="
M532.066162,187.678284 
	C531.858826,187.734665 531.553101,187.524948 531.147522,187.048706 
	C531.354309,186.992172 531.661072,187.202194 532.066162,187.678284 
z"/>
<path fill="#0149CA" opacity="1.000000" stroke="none" 
	d="
M340.937073,637.291992 
	C341.089508,637.258728 341.295685,637.465637 341.387604,637.803833 
	C341.273346,637.935120 340.990814,637.532104 340.937073,637.291992 
z"/>
<path fill="#00158B" opacity="1.000000" stroke="none" 
	d="
M151.234848,639.952942 
	C151.298615,639.826965 151.570175,639.831543 151.878952,640.024536 
	C151.916183,640.212891 151.442627,640.083557 151.234848,639.952942 
z"/>
<path fill="#082B94" opacity="1.000000" stroke="none" 
	d="
M516.331543,172.104492 
	C516.100464,172.213089 515.765503,172.156174 515.510376,171.800293 
	C515.845276,171.585358 516.057678,171.731247 516.331543,172.104492 
z"/>
<path fill="#082B94" opacity="1.000000" stroke="none" 
	d="
M500.980225,160.773315 
	C500.808502,160.896317 500.565186,160.760178 500.227173,160.401611 
	C500.448486,160.141495 500.707184,160.253159 500.980225,160.773315 
z"/>
<path fill="#082B94" opacity="1.000000" stroke="none" 
	d="
M530.189453,185.647568 
	C529.975464,185.688965 529.655090,185.457520 529.289856,184.920105 
	C529.524414,184.867661 529.803711,185.121201 530.189453,185.647568 
z"/>
<path fill="#0360D1" opacity="1.000000" stroke="none" 
	d="
M571.653320,578.230652 
	C571.506348,578.016663 571.585266,577.660828 571.930786,577.187744 
	C572.091370,577.409912 571.985291,577.749390 571.653320,578.230652 
z"/>
<path fill="#0D66D1" opacity="1.000000" stroke="none" 
	d="
M572.118652,430.672333 
	C571.906982,430.682587 571.634216,430.440582 571.411072,429.913361 
	C571.659668,429.892151 571.858582,430.156128 572.118652,430.672333 
z"/>
<path fill="#082B94" opacity="1.000000" stroke="none" 
	d="
M535.088318,191.688187 
	C534.877625,191.704285 534.598145,191.452332 534.330139,190.903656 
	C534.567566,190.877991 534.793579,191.149063 535.088318,191.688187 
z"/>
<path fill="#082B94" opacity="1.000000" stroke="none" 
	d="
M541.020996,199.706512 
	C540.795898,199.756317 540.519470,199.529190 540.175171,199.033615 
	C540.394714,198.986633 540.682251,199.208115 541.020996,199.706512 
z"/>
<path fill="#082B94" opacity="1.000000" stroke="none" 
	d="
M547.164062,209.664825 
	C546.944153,209.668091 546.666992,209.421906 546.468750,208.890106 
	C546.734009,208.874771 546.920410,209.145081 547.164062,209.664825 
z"/>
<path fill="#082B94" opacity="1.000000" stroke="none" 
	d="
M502.133667,161.619339 
	C501.919861,161.723282 501.593353,161.572021 501.143188,161.174454 
	C501.353363,161.073486 501.687134,161.218796 502.133667,161.619339 
z"/>
<path fill="#082B94" opacity="1.000000" stroke="none" 
	d="
M540.734375,335.218414 
	C540.581299,335.034271 540.613098,334.673126 540.905151,334.179993 
	C541.083313,334.379150 541.001282,334.710297 540.734375,335.218414 
z"/>
<path fill="#0163D2" opacity="1.000000" stroke="none" 
	d="
M341.670044,545.923096 
	C341.763123,546.129456 341.601288,546.436279 341.206970,546.868958 
	C341.121399,546.671082 341.268280,546.347290 341.670044,545.923096 
z"/>
<path fill="#0163D2" opacity="1.000000" stroke="none" 
	d="
M342.701752,544.971558 
	C342.760315,545.185730 342.548859,545.470337 342.079590,545.843262 
	C342.025116,545.635071 342.228424,545.338501 342.701752,544.971558 
z"/>
<path fill="#082B94" opacity="1.000000" stroke="none" 
	d="
M533.534912,345.249817 
	C533.421265,345.024384 533.555908,344.666809 533.973206,344.208679 
	C534.098328,344.444641 533.940796,344.781158 533.534912,345.249817 
z"/>
<path fill="#082B94" opacity="1.000000" stroke="none" 
	d="
M531.335815,348.084808 
	C531.245300,347.871399 531.414673,347.558075 531.832642,347.132019 
	C531.919373,347.341156 531.757568,347.663025 531.335815,348.084808 
z"/>
<path fill="#082B94" opacity="1.000000" stroke="none" 
	d="
M530.356873,349.116333 
	C530.281067,348.900543 530.467712,348.581940 530.921143,348.164001 
	C530.998352,348.380951 530.808777,348.697235 530.356873,349.116333 
z"/>
<path fill="#0D66D1" opacity="1.000000" stroke="none" 
	d="
M572.965332,431.733978 
	C572.737854,431.781494 572.481262,431.556396 572.153687,431.079376 
	C572.367249,431.038788 572.651794,431.250092 572.965332,431.733978 
z"/>
</svg>